<?xml version="1.0" encoding="UTF-8"?>
<!DOCTYPE svg PUBLIC "-//W3C//DTD SVG 1.1//EN" "http://www.w3.org/Graphics/SVG/1.1/DTD/svg11.dtd">
<svg version="1.1" xmlns="http://www.w3.org/2000/svg" xmlns:xlink="http://www.w3.org/1999/xlink" x="0" y="0" width="75" height="15" viewBox="0, 0, 75, 15">
  <g id="Layer_1">
    <g>
      <path d="M10.552,9.908 Q10.552,10.538 10.3,11.014 Q10.048,11.49 9.607,11.812 Q9.166,12.134 8.585,12.302 Q8.004,12.47 7.346,12.47 L2.544,12.47 L2.544,2.53 L7.864,2.53 Q8.382,2.53 8.802,2.754 Q9.222,2.978 9.516,3.335 Q9.81,3.692 9.971,4.147 Q10.132,4.602 10.132,5.064 Q10.132,5.792 9.768,6.429 Q9.404,7.066 8.704,7.374 Q9.558,7.626 10.055,8.277 Q10.552,8.928 10.552,9.908 z M8.606,9.544 Q8.606,9.278 8.515,9.033 Q8.424,8.788 8.27,8.606 Q8.116,8.424 7.906,8.319 Q7.696,8.214 7.444,8.214 L4.476,8.214 L4.476,10.832 L7.346,10.832 Q7.612,10.832 7.843,10.734 Q8.074,10.636 8.242,10.461 Q8.41,10.286 8.508,10.048 Q8.606,9.81 8.606,9.544 z M4.476,4.182 L4.476,6.688 L7.052,6.688 Q7.542,6.688 7.885,6.352 Q8.228,6.016 8.228,5.428 Q8.228,4.854 7.913,4.518 Q7.598,4.182 7.136,4.182 z" fill="#FFFFFF"/>
      <path d="M18.282,2.53 L19.99,2.53 L23.77,12.47 L21.782,12.47 L20.858,9.992 L17.386,9.992 L16.476,12.47 L14.488,12.47 z M20.508,8.634 L19.136,4.728 L17.708,8.634 z" fill="#FFFFFF"/>
      <path d="M32.228,10.832 Q32.914,10.832 33.383,10.552 Q33.852,10.272 34.139,9.824 Q34.426,9.376 34.545,8.795 Q34.664,8.214 34.664,7.598 L34.664,2.53 L36.582,2.53 L36.582,7.598 Q36.582,8.62 36.337,9.516 Q36.092,10.412 35.567,11.084 Q35.042,11.756 34.216,12.148 Q33.39,12.54 32.242,12.54 Q31.052,12.54 30.219,12.127 Q29.386,11.714 28.868,11.035 Q28.35,10.356 28.119,9.46 Q27.888,8.564 27.888,7.598 L27.888,2.53 L29.82,2.53 L29.82,7.598 Q29.82,8.228 29.939,8.809 Q30.058,9.39 30.345,9.838 Q30.632,10.286 31.094,10.559 Q31.556,10.832 32.228,10.832 z" fill="#FFFFFF"/>
      <path d="M42.128,12.47 L42.128,2.53 L45.74,2.53 Q46.958,2.53 47.875,2.922 Q48.792,3.314 49.408,3.986 Q50.024,4.658 50.332,5.561 Q50.64,6.464 50.64,7.486 Q50.64,8.62 50.297,9.537 Q49.954,10.454 49.31,11.105 Q48.666,11.756 47.763,12.113 Q46.86,12.47 45.74,12.47 z M48.694,7.486 Q48.694,6.772 48.498,6.17 Q48.302,5.568 47.924,5.134 Q47.546,4.7 46.993,4.462 Q46.44,4.224 45.74,4.224 L44.06,4.224 L44.06,10.776 L45.74,10.776 Q46.454,10.776 47.007,10.524 Q47.56,10.272 47.931,9.831 Q48.302,9.39 48.498,8.788 Q48.694,8.186 48.694,7.486 z" fill="#FFFFFF"/>
      <path d="M55.752,12.47 L55.752,2.53 L57.684,2.53 L57.684,12.47 z" fill="#FFFFFF"/>
      <path d="M67.598,12.54 Q66.506,12.54 65.617,12.113 Q64.728,11.686 64.091,10.979 Q63.454,10.272 63.104,9.362 Q62.754,8.452 62.754,7.5 Q62.754,6.506 63.125,5.596 Q63.496,4.686 64.147,3.986 Q64.798,3.286 65.694,2.873 Q66.59,2.46 67.64,2.46 Q68.718,2.46 69.607,2.901 Q70.496,3.342 71.126,4.056 Q71.756,4.77 72.106,5.68 Q72.456,6.59 72.456,7.528 Q72.456,8.522 72.092,9.425 Q71.728,10.328 71.084,11.021 Q70.44,11.714 69.544,12.127 Q68.648,12.54 67.598,12.54 z M64.714,7.5 Q64.714,8.144 64.91,8.746 Q65.106,9.348 65.477,9.81 Q65.848,10.272 66.387,10.552 Q66.926,10.832 67.612,10.832 Q68.312,10.832 68.851,10.545 Q69.39,10.258 69.761,9.782 Q70.132,9.306 70.321,8.711 Q70.51,8.116 70.51,7.5 Q70.51,6.856 70.307,6.254 Q70.104,5.652 69.733,5.19 Q69.362,4.728 68.823,4.455 Q68.284,4.182 67.612,4.182 Q66.912,4.182 66.366,4.469 Q65.82,4.756 65.456,5.225 Q65.092,5.694 64.903,6.289 Q64.714,6.884 64.714,7.5 z" fill="#FFFFFF"/>
    </g>
    <path d="M4.625,0.344 L5.688,0.344 L5.688,2.625 L4.625,2.625 L4.625,0.344 z" fill="#FFFFFF"/>
    <path d="M6.688,0.344 L7.75,0.344 L7.75,2.625 L6.688,2.625 L6.688,0.344 z" fill="#FFFFFF"/>
    <path d="M4.625,12.406 L5.688,12.406 L5.688,14.688 L4.625,14.688 L4.625,12.406 z" fill="#FFFFFF"/>
    <path d="M6.688,12.406 L7.75,12.406 L7.75,14.688 L6.688,14.688 L6.688,12.406 z" fill="#FFFFFF"/>
  </g>
</svg>
