<?xml version="1.0" encoding="UTF-8"?>
<!DOCTYPE svg PUBLIC "-//W3C//DTD SVG 1.1//EN" "http://www.w3.org/Graphics/SVG/1.1/DTD/svg11.dtd">
<svg version="1.1" xmlns="http://www.w3.org/2000/svg" xmlns:xlink="http://www.w3.org/1999/xlink" x="0" y="0" width="286" height="102" viewBox="0, 0, 286, 102">
  <g id="JAM">
    <path d="M58.604,32.227 L58.604,59.037 C58.604,66.057 54.317,72.775 42.068,72.775 C31.12,72.775 25.837,67.026 25.148,61.579 L31.12,61.579 C31.732,64.726 35.177,68.357 42.374,68.357 C51.561,68.357 52.862,62.971 52.862,58.855 L52.862,32.227 L58.604,32.227 z M123.068,32.227 C123.068,32.227 141.212,51.23 141.212,51.23 C141.212,51.23 159.05,32.227 159.05,32.227 L165.711,32.227 C165.711,32.227 165.711,72.291 165.711,72.291 L159.969,72.291 C159.969,72.291 159.969,39.127 159.969,39.126 C159.969,39.127 141.212,58.19 141.212,58.19 C141.212,58.19 122.149,39.127 122.149,39.126 L122.149,72.291 C122.149,72.291 116.408,72.291 116.408,72.291 L116.408,32.227 C116.408,32.227 123.068,32.227 123.068,32.227 z M90.377,32.227 C90.377,32.227 111.89,72.291 111.89,72.291 L105.536,72.291 C105.536,72.291 99.335,60.671 99.335,60.671 L74.224,60.671 C74.224,60.671 68.023,72.291 68.022,72.291 L61.668,72.291 C61.668,72.291 83.181,32.227 83.181,32.227 L90.377,32.227 z M86.779,36.948 C86.779,36.948 76.444,56.495 76.444,56.495 L97.114,56.495 C97.114,56.495 86.779,36.948 86.779,36.948 z" fill="#FFFFFF" id="JAM"/>
  </g>
  <g id="Rect">
    <path d="M190.81,21 C190.81,21 247.19,21 247.19,21 C252.056,21 256,25.477 256,31 C256,31 256,73 256,73 C256,78.523 252.056,83 247.19,83 C247.19,83 190.81,83 190.81,83 C185.944,83 182,78.523 182,73 C182,73 182,31 182,31 C182,25.477 185.944,21 190.81,21 z" fill="#1F1F1F" id="Rounded_Rectangle_1"/>
  </g>
  <g id="21">
    <path d="M238.55,35.117 L238.55,66.913 C238.55,66.913 234.425,66.913 234.425,66.913 L234.425,38.575 C234.425,38.575 226.725,38.575 226.725,38.575 L226.725,35.117 L238.55,35.117 z M209.015,34.733 C216.88,34.733 221.445,38.815 221.445,44.099 C221.445,52.984 202.415,57.835 201.755,63.455 L221.335,63.455 C221.335,63.455 221.335,66.913 221.335,66.913 L196.86,66.913 C196.86,66.913 196.86,64.944 196.86,64.944 C196.86,55.53 217.32,51.495 217.32,44.195 C217.32,40.496 214.405,38.239 209.125,38.239 C204.285,38.239 201.04,40.208 200.49,43.762 L196.365,43.762 C196.97,38.287 202.305,34.733 209.015,34.733 z" fill="#FFFFFF" id="21"/>
  </g>
</svg>
